<svg width="17" height="14" viewBox="0 0 17 14" version="1.1" xmlns="http://www.w3.org/2000/svg" xmlns:xlink="http://www.w3.org/1999/xlink"><title>Rectangle</title><desc>Created with Sketch.</desc><defs><linearGradient x1="50%" y1="0%" x2="50%" y2="70.63%" id="linearGradient-1"><stop stop-color="#EBEBEB" offset="0%"/><stop stop-color="#FCFCFC" offset="100%"/></linearGradient><path d="M3.8458278,-5.04035735e-15 L13.1541722,-5.92494047e-15 C14.4914503,-4.98285292e-15 14.9763797,0.139238417 15.4652686,0.400699056 C15.9541574,0.662159695 16.3378403,1.04584256 16.5993009,1.53473144 C16.8607616,2.02362033 17,2.50854969 17,3.8458278 L17,7.11708367 C17,8.45436178 16.8607616,8.93929113 16.5993009,9.42818002 C16.3378403,9.91706891 15.9541574,10.3007518 15.4652686,10.5622124 C14.9763797,10.8236731 14.4914503,10.9629115 13.1541722,10.9629115 L9,10.9629115 L9,14 L5,10.9629115 L3.8458278,10.9629115 C2.50854969,10.9629115 2.02362033,10.8236731 1.53473144,10.5622124 C1.04584256,10.3007518 0.662159695,9.91706891 0.400699056,9.42818002 C0.139238417,8.93929113 -4.38070679e-15,8.45436178 -4.54447613e-15,7.11708367 L-4.78139728e-15,3.8458278 C-4.94516661e-15,2.50854969 0.139238417,2.02362033 0.400699056,1.53473144 C0.662159695,1.04584256 1.04584256,0.662159695 1.53473144,0.400699056 C2.02362033,0.139238417 2.50854969,-4.79470335e-15 3.8458278,-5.04035735e-15 Z" id="path-2"/></defs><g id="Page-1" stroke="none" stroke-width="1" fill="none" fill-rule="evenodd"><g id="comment"><g id="Rectangle"><use fill="url(#linearGradient-1)" fill-rule="evenodd" xlink:href="#path-2"/><path stroke="#B4B4B4" stroke-width="1" d="M8.5,12.9925713 L8.5,10.4629115 L13.1541722,10.4629115 C14.2979148,10.4629115 14.7562012,10.3744123 15.2294691,10.1213058 C15.6312238,9.90644507 15.9435336,9.59413525 16.1583943,9.19238059 C16.4115008,8.71911264 16.5,8.26082625 16.5,7.11708367 L16.5,3.8458278 C16.5,2.70208522 16.4115008,2.24379883 16.1583943,1.77053087 C15.9435336,1.36877622 15.6312238,1.05646639 15.2294691,0.841605655 C14.7562012,0.588499184 14.2979148,0.5 13.1541722,0.5 L3.8458278,0.5 C2.70208522,0.5 2.24379883,0.588499184 1.77053087,0.841605655 C1.36877622,1.05646639 1.05646639,1.36877622 0.841605655,1.77053087 C0.588499184,2.24379883 0.5,2.70208522 0.5,3.8458278 L0.5,7.11708367 C0.5,8.26082625 0.588499184,8.71911264 0.841605655,9.19238059 C1.05646639,9.59413525 1.36877622,9.90644507 1.77053087,10.1213058 C2.24379883,10.3744123 2.70208522,10.4629115 3.8458278,10.4629115 L5.16830935,10.4629115 L8.5,12.9925713 Z"/></g></g></g></svg>