<svg width="32" height="18" viewBox="0 0 32 18" version="1.1" xmlns="http://www.w3.org/2000/svg" xmlns:xlink="http://www.w3.org/1999/xlink"><title>tag</title><desc>Created with Sketch.</desc><defs><linearGradient x1="50%" y1="0%" x2="50%" y2="100%" id="linearGradient-1"><stop stop-color="#D1EDCE" offset="0%"/><stop stop-color="#B8D4B5" offset="100%"/></linearGradient><linearGradient x1="50%" y1="0%" x2="50%" y2="100%" id="linearGradient-2"><stop stop-color="#C2E6BE" offset="0%"/><stop stop-color="#A8C4A5" offset="100%"/></linearGradient><path d="M8.97970844,-1.16190248e-16 L28.1541722,1.55376046e-16 C29.4914503,-9.02779573e-17 29.9763797,0.139238417 30.4652686,0.400699056 C30.9541574,0.662159695 31.3378403,1.04584256 31.5993009,1.53473144 C31.8607616,2.02362033 32,2.50854969 32,3.8458278 L32,14.1541722 C32,15.4914503 31.8607616,15.9763797 31.5993009,16.4652686 C31.3378403,16.9541574 30.9541574,17.3378403 30.4652686,17.5993009 C29.9763797,17.8607616 29.4914503,18 28.1541722,18 L8.97970844,18 C8.16505833,18 7.88044412,17.9667582 7.56633538,17.8879189 C7.25222665,17.8090796 6.97512544,17.6846428 6.70751773,17.502253 C6.43991003,17.3198632 6.22597738,17.1292245 5.6847533,16.5203475 L1.30946995,11.5981537 C0.480086401,10.6650972 0.265687932,10.2485286 0.124636307,9.75022962 C-0.0164153178,9.25193068 -0.0164153178,8.74806932 0.124636307,8.24977038 C0.265687932,7.75147144 0.480086401,7.3349028 1.30946995,6.4018463 L5.6847533,1.47965254 C6.22597738,0.870775452 6.43991003,0.680136815 6.70751773,0.497746995 C6.97512544,0.315357176 7.25222665,0.190920427 7.56633538,0.112081133 C7.88044412,0.0332418393 8.16505833,3.34585502e-17 8.97970844,-1.16190248e-16 Z" id="path-3"/></defs><g id="Page-1" stroke="none" stroke-width="1" fill="none" fill-rule="evenodd"><g id="tag"><use fill="url(#linearGradient-1)" fill-rule="evenodd" xlink:href="#path-3"/><path stroke="url(#linearGradient-2)" stroke-width="1" d="M8.97970844,0.5 C8.25443648,0.5 7.9816632,0.523345419 7.68805667,0.59703879 C7.4310502,0.661545779 7.20807131,0.761678029 6.98911238,0.91091095 C6.73897171,1.08139599 6.54030242,1.26975944 6.05845796,1.81183446 L1.68317461,6.73402822 C0.970256947,7.5360606 0.74152477,7.90623674 0.605733353,8.38595272 C0.489885667,8.79521266 0.489885667,9.20478734 0.605733353,9.61404728 C0.74152477,10.0937633 0.970256947,10.4639394 1.68317461,11.2659718 L6.05845796,16.1881655 C6.54030242,16.7302406 6.73897171,16.918604 6.98911238,17.0890891 C7.20807131,17.238322 7.4310502,17.3384542 7.68805667,17.4029612 C7.9816632,17.4766546 8.25443648,17.5 8.97970844,17.5 L28.1541722,17.5 C29.2979148,17.5 29.7562012,17.4115008 30.2294691,17.1583943 C30.6312238,16.9435336 30.9435336,16.6312238 31.1583943,16.2294691 C31.4115008,15.7562012 31.5,15.2979148 31.5,14.1541722 L31.5,3.8458278 C31.5,2.70208522 31.4115008,2.24379883 31.1583943,1.77053087 C30.9435336,1.36877622 30.6312238,1.05646639 30.2294691,0.841605655 C29.7562012,0.588499184 29.2979148,0.5 28.1541722,0.5 L8.97970844,0.5 Z"/></g></g></svg>