<svg width="34" height="20" viewBox="0 0 34 20" version="1.1" xmlns="http://www.w3.org/2000/svg" xmlns:xlink="http://www.w3.org/1999/xlink"><title>tag copy 3</title><desc>Created with Sketch.</desc><defs><linearGradient x1="50%" y1="0%" x2="50%" y2="100%" id="linearGradient-1"><stop stop-color="#BDC6CF" offset="0%"/><stop stop-color="#A1AEBA" offset="100%"/></linearGradient><linearGradient x1="50%" y1="0%" x2="50%" y2="100%" id="linearGradient-2"><stop stop-color="#D4DAE0" offset="0%"/><stop stop-color="#C2CBD3" offset="100%"/></linearGradient><path d="M9.97970844,-1.16190248e-16 L29.1541722,1.55376046e-16 C30.4914503,-9.02779573e-17 30.9763797,0.139238417 31.4652686,0.400699056 C31.9541574,0.662159695 32.3378403,1.04584256 32.5993009,1.53473144 C32.8607616,2.02362033 33,2.50854969 33,3.8458278 L33,14.1541722 C33,15.4914503 32.8607616,15.9763797 32.5993009,16.4652686 C32.3378403,16.9541574 31.9541574,17.3378403 31.4652686,17.5993009 C30.9763797,17.8607616 30.4914503,18 29.1541722,18 L9.97970844,18 C9.16505833,18 8.88044412,17.9667582 8.56633538,17.8879189 C8.25222665,17.8090796 7.97512544,17.6846428 7.70751773,17.502253 C7.43991003,17.3198632 7.22597738,17.1292245 6.6847533,16.5203475 L2.30946995,11.5981537 C1.4800864,10.6650972 1.26568793,10.2485286 1.12463631,9.75022962 C0.983584682,9.25193068 0.983584682,8.74806932 1.12463631,8.24977038 C1.26568793,7.75147144 1.4800864,7.3349028 2.30946995,6.4018463 L6.6847533,1.47965254 C7.22597738,0.870775452 7.43991003,0.680136815 7.70751773,0.497746995 C7.97512544,0.315357176 8.25222665,0.190920427 8.56633538,0.112081133 C8.88044412,0.0332418393 9.16505833,3.34585502e-17 9.97970844,-1.16190248e-16 Z" id="path-3"/><filter x="-6.1%" y="-5.6%" width="112.1%" height="122.2%" filterUnits="objectBoundingBox" id="filter-4"><feOffset dx="0" dy="1" in="SourceAlpha" result="shadowOffsetOuter1"/><feGaussianBlur stdDeviation=".5" in="shadowOffsetOuter1" result="shadowBlurOuter1"/><feComposite in="shadowBlurOuter1" in2="SourceAlpha" operator="out" result="shadowBlurOuter1"/><feColorMatrix values="0 0 0 0 0 0 0 0 0 0 0 0 0 0 0 0 0 0 0.344938859 0" type="matrix" in="shadowBlurOuter1"/></filter><filter x="-7.6%" y="-8.3%" width="115.2%" height="127.8%" filterUnits="objectBoundingBox" id="filter-5"><feGaussianBlur stdDeviation=".5" in="SourceAlpha" result="shadowBlurInner1"/><feOffset dx="1" dy="2" in="shadowBlurInner1" result="shadowOffsetInner1"/><feComposite in="shadowOffsetInner1" in2="SourceAlpha" operator="arithmetic" k2="-1" k3="1" result="shadowInnerInner1"/><feColorMatrix values="0 0 0 0 0 0 0 0 0 0 0 0 0 0 0 0 0 0 0.152230525 0" type="matrix" in="shadowInnerInner1"/></filter></defs><g id="Page-1" stroke="none" stroke-width="1" fill="none" fill-rule="evenodd"><g id="tag-copy-3"><use fill="#000" fill-opacity="1" filter="url(#filter-4)" xlink:href="#path-3"/><use fill="url(#linearGradient-1)" fill-rule="evenodd" xlink:href="#path-3"/><use fill="#000" fill-opacity="1" filter="url(#filter-5)" xlink:href="#path-3"/><path stroke="url(#linearGradient-2)" stroke-width="1" d="M9.97970844,0.5 C9.25443648,0.5 8.9816632,0.523345419 8.68805667,0.59703879 C8.4310502,0.661545779 8.20807131,0.761678029 7.98911238,0.91091095 C7.73897171,1.08139599 7.54030242,1.26975944 7.05845796,1.81183446 L2.68317461,6.73402822 C1.97025695,7.5360606 1.74152477,7.90623674 1.60573335,8.38595272 C1.48988567,8.79521266 1.48988567,9.20478734 1.60573335,9.61404728 C1.74152477,10.0937633 1.97025695,10.4639394 2.68317461,11.2659718 L7.05845796,16.1881655 C7.54030242,16.7302406 7.73897171,16.918604 7.98911238,17.0890891 C8.20807131,17.238322 8.4310502,17.3384542 8.68805667,17.4029612 C8.9816632,17.4766546 9.25443648,17.5 9.97970844,17.5 L29.1541722,17.5 C30.2979148,17.5 30.7562012,17.4115008 31.2294691,17.1583943 C31.6312238,16.9435336 31.9435336,16.6312238 32.1583943,16.2294691 C32.4115008,15.7562012 32.5,15.2979148 32.5,14.1541722 L32.5,3.8458278 C32.5,2.70208522 32.4115008,2.24379883 32.1583943,1.77053087 C31.9435336,1.36877622 31.6312238,1.05646639 31.2294691,0.841605655 C30.7562012,0.588499184 30.2979148,0.5 29.1541722,0.5 L9.97970844,0.5 Z"/></g></g></svg>